<svg id="Layer_1" data-name="Layer 1" xmlns="http://www.w3.org/2000/svg" viewBox="0 0 320.93 443.55"><defs><style>.cls-1{fill:#153759;}.cls-2{fill:none;}.cls-3{fill:#19416a;}</style></defs><path class="cls-1" d="M-272.64-385.66l4.29-4.28-4.29-4.29.86-1.71,6,6-6,6Z" transform="translate(272.64 395.94)"/><path class="cls-2" d="M23.79-1.39h0a24.5,24.5,0,0,1,24.5,24.5h0a24.5,24.5,0,0,1-24.5,24.5h0A24.5,24.5,0,0,1-.71,23.11h0A24.5,24.5,0,0,1,23.79-1.39Z" transform="translate(272.64 395.94)"/><path class="cls-3" d="M15.86,21.35h15a1.5,1.5,0,0,1,1.5,1.5h0a1.5,1.5,0,0,1-1.5,1.5h-15a1.5,1.5,0,0,1-1.5-1.5h0A1.5,1.5,0,0,1,15.86,21.35Z" transform="translate(272.64 395.94)"/></svg>