<svg id="Layer_1" data-name="Layer 1" xmlns="http://www.w3.org/2000/svg" viewBox="0 0 320.93 443.55"><defs><style>.cls-1{fill:#c4c4c4;}.cls-2{fill:#153759;}.cls-3{fill:none;}.cls-4{fill:#19416a;}</style></defs><path class="cls-1" d="M-244.15-383.47l-12.92-11.89a2.17,2.17,0,0,0-1.55-.58,2.23,2.23,0,0,0-1.52.64L-272-383.41a2.09,2.09,0,0,0-.61,1.48v12.66a4,4,0,0,0,4,4h3.46a4,4,0,0,0,4-4v-3.81a3.13,3.13,0,0,1,3.12-3.13,3.13,3.13,0,0,1,3.13,3.13v3.81a4,4,0,0,0,4,4h3.46a4,4,0,0,0,4-4v-12.66A2.1,2.1,0,0,0-244.15-383.47Zm-14.42-10.39Zm13,22.86a3.64,3.64,0,0,1-3.64,3.65,3.64,3.64,0,0,1-3.65-3.65v-5.21a2.08,2.08,0,0,0-.61-1.47,2.08,2.08,0,0,0-1.47-.61h-6.25a2.08,2.08,0,0,0-1.47.61,2.08,2.08,0,0,0-.61,1.47V-371a3.65,3.65,0,0,1-3.65,3.65,3.64,3.64,0,0,1-3.64-3.65v-9.27a4,4,0,0,1,1.18-2.84l10.8-10.71h0l11.71,10.7a4,4,0,0,1,1.3,2.95Z" transform="translate(272.64 395.94)"/><path class="cls-2" d="M-272.64-385.66l4.29-4.28-4.29-4.29.86-1.71,6,6-6,6Z" transform="translate(272.64 395.94)"/><path class="cls-3" d="M23.79-1.39h0a24.5,24.5,0,0,1,24.5,24.5h0a24.5,24.5,0,0,1-24.5,24.5h0A24.5,24.5,0,0,1-.71,23.11h0A24.5,24.5,0,0,1,23.79-1.39Z" transform="translate(272.64 395.94)"/><path class="cls-4" d="M16.24,26.55l5,5,9.3-9.31a.91.91,0,0,0,.22-.64.88.88,0,0,0-.27-.61.9.9,0,0,0-.62-.28,1,1,0,0,0-.63.23l-8,8-3.65-3.65a.94.94,0,0,0-.64-.22.93.93,0,0,0-.62.27,1,1,0,0,0-.27.62.94.94,0,0,0,.22.64Z" transform="translate(272.64 395.94)"/><path class="cls-4" d="M15.49,16.83a.9.9,0,0,0,.66-.27.93.93,0,0,0,.27-.65V10.35a.93.93,0,0,0-.27-.65.93.93,0,0,0-1.31,0,.93.93,0,0,0-.27.65v5.56a.93.93,0,0,0,.27.65A.89.89,0,0,0,15.49,16.83Z" transform="translate(272.64 395.94)"/><path class="cls-4" d="M35.86,19.81V35.35H9.94V15h2.78V13.13h-3a1.52,1.52,0,0,0-.63.14,1.61,1.61,0,0,0-.53.36,1.73,1.73,0,0,0-.35.54,1.54,1.54,0,0,0-.11.64V35.53a1.53,1.53,0,0,0,.11.63,1.73,1.73,0,0,0,.35.54,1.8,1.8,0,0,0,.53.37,1.69,1.69,0,0,0,.63.13H36.09a1.69,1.69,0,0,0,.63-.13,1.8,1.8,0,0,0,.53-.37,1.73,1.73,0,0,0,.35-.54,1.53,1.53,0,0,0,.11-.63V19A6.51,6.51,0,0,1,35.86,19.81Z" transform="translate(272.64 395.94)"/><path class="cls-4" d="M27.07,13.13h-8.8V15h9.06A6.78,6.78,0,0,1,27.07,13.13Z" transform="translate(272.64 395.94)"/><path class="cls-4" d="M34,17.76a4.63,4.63,0,1,0-4.63-4.63A4.63,4.63,0,0,0,34,17.76Z" transform="translate(272.64 395.94)"/></svg>