<svg id="Layer_1" data-name="Layer 1" xmlns="http://www.w3.org/2000/svg" viewBox="0 0 320.93 443.55"><defs><style>.cls-1{fill:#153759;}.cls-2{fill:none;}.cls-3{fill:#c4c4c4;}</style></defs><path class="cls-1" d="M-272.64-385.66l4.29-4.28-4.29-4.29.86-1.71,6,6-6,6Z" transform="translate(272.64 395.94)"/><path class="cls-2" d="M23.79-1.39h0a24.5,24.5,0,0,1,24.5,24.5h0a24.5,24.5,0,0,1-24.5,24.5h0A24.5,24.5,0,0,1-.71,23.11h0A24.5,24.5,0,0,1,23.79-1.39Z" transform="translate(272.64 395.94)"/><path class="cls-3" d="M16.24,26.55l5,5,9.3-9.31a.91.91,0,0,0,.22-.64.88.88,0,0,0-.27-.61.9.9,0,0,0-.62-.28,1,1,0,0,0-.63.23l-8,8-3.65-3.65a.94.94,0,0,0-.64-.22.93.93,0,0,0-.62.27,1,1,0,0,0-.27.62.94.94,0,0,0,.22.64Z" transform="translate(272.64 395.94)"/><path class="cls-3" d="M15.49,16.83a.9.9,0,0,0,.66-.27.93.93,0,0,0,.27-.65V10.35a.93.93,0,0,0-.27-.65.93.93,0,0,0-1.31,0,.93.93,0,0,0-.27.65v5.56a.93.93,0,0,0,.27.65A.89.89,0,0,0,15.49,16.83Z" transform="translate(272.64 395.94)"/><path class="cls-3" d="M35.86,19.81V35.35H9.94V15h2.78V13.13h-3a1.52,1.52,0,0,0-.63.14,1.61,1.61,0,0,0-.53.36,1.73,1.73,0,0,0-.35.54,1.54,1.54,0,0,0-.11.64V35.53a1.53,1.53,0,0,0,.11.63,1.73,1.73,0,0,0,.35.54,1.8,1.8,0,0,0,.53.37,1.69,1.69,0,0,0,.63.13H36.09a1.69,1.69,0,0,0,.63-.13,1.8,1.8,0,0,0,.53-.37,1.73,1.73,0,0,0,.35-.54,1.53,1.53,0,0,0,.11-.63V19A6.51,6.51,0,0,1,35.86,19.81Z" transform="translate(272.64 395.94)"/><path class="cls-3" d="M27.07,13.13h-8.8V15h9.06A6.78,6.78,0,0,1,27.07,13.13Z" transform="translate(272.64 395.94)"/><path class="cls-3" d="M34,17.76a4.63,4.63,0,1,0-4.63-4.63A4.63,4.63,0,0,0,34,17.76Z" transform="translate(272.64 395.94)"/></svg>