<svg id="Layer_1" data-name="Layer 1" xmlns="http://www.w3.org/2000/svg" viewBox="0 0 311.64 433.54"><defs><style>.cls-1{fill:#153759;}.cls-2{fill:#fff;}</style></defs><path class="cls-1" d="M-272.64-385.66l4.29-4.28-4.29-4.29.86-1.71,6,6-6,6Z" transform="translate(272.64 395.94)"/><path class="cls-2" d="M24.89,9.38h0a14.1,14.1,0,0,0-14.1,14.11h0A14.1,14.1,0,0,0,24.89,37.6h0A14.11,14.11,0,0,0,39,23.49h0A14.11,14.11,0,0,0,24.89,9.38Z" transform="translate(272.64 395.94)"/><path class="cls-1" d="M19.88,24.39a.44.44,0,0,1,0-.62L22.69,21a.44.44,0,0,1,.62.62l-2.5,2.5,2.5,2.49a.44.44,0,0,1,0,.62.42.42,0,0,1-.62,0Zm9.72.13H20.19v-.88H29.6Z" transform="translate(272.64 395.94)"/></svg>