<svg id="Layer_1" data-name="Layer 1" xmlns="http://www.w3.org/2000/svg" viewBox="0 0 20.92 20"><defs><style>.cls-1{fill:#506983;}</style></defs><path class="cls-1" d="M17.17,16.07a1.34,1.34,0,0,0-.92.38,1.3,1.3,0,0,0-.38.93V27.84a1.28,1.28,0,0,0,.38.92,1.3,1.3,0,0,0,.92.39H29.71a2.62,2.62,0,0,1,1.85.76l2.62,2.62V17.38a1.31,1.31,0,0,0-1.31-1.31Zm15.7-1.31a2.63,2.63,0,0,1,1.85.77,2.6,2.6,0,0,1,.76,1.85V34.11a.59.59,0,0,1-.11.36.62.62,0,0,1-.29.24.7.7,0,0,1-.38,0,.67.67,0,0,1-.33-.18l-3.73-3.73a1.31,1.31,0,0,0-.93-.39H17.17a2.61,2.61,0,0,1-2.61-2.61V17.38a2.57,2.57,0,0,1,.77-1.85,2.61,2.61,0,0,1,1.84-.77Z" transform="translate(-14.56 -14.76)"/><path class="cls-1" d="M18.48,19.34a.65.65,0,0,1,.66-.66H30.91a.66.66,0,0,1,.46.19.68.68,0,0,1,.19.47.65.65,0,0,1-.65.65H19.14a.68.68,0,0,1-.47-.19A.66.66,0,0,1,18.48,19.34Zm0,3.27a.65.65,0,0,1,.66-.66H30.91a.66.66,0,0,1,.46.19.68.68,0,0,1,.19.47.65.65,0,0,1-.65.65H19.14a.68.68,0,0,1-.47-.19A.66.66,0,0,1,18.48,22.61Zm0,3.27a.65.65,0,0,1,.66-.66h6.54a.65.65,0,0,1,.65.66.66.66,0,0,1-.19.46.68.68,0,0,1-.46.19H19.14a.68.68,0,0,1-.47-.19A.66.66,0,0,1,18.48,25.88Z" transform="translate(-14.56 -14.76)"/></svg>