<svg id="Layer_1" data-name="Layer 1" xmlns="http://www.w3.org/2000/svg" viewBox="0 0 312.01 431.69"><defs><style>.cls-1{fill:#153759;}.cls-2{fill:#506983;}</style></defs><path class="cls-1" d="M-272.64-385.66l4.29-4.28-4.29-4.29.86-1.71,6,6-6,6Z" transform="translate(272.64 395.94)"/><path class="cls-2" d="M35,15.61a23.65,23.65,0,0,0-5.87-1.82H29l0,0a14.81,14.81,0,0,0-.73,1.5,21.42,21.42,0,0,0-6.59,0,11.6,11.6,0,0,0-.74-1.5.08.08,0,0,0,0,0h0A23.45,23.45,0,0,0,15,15.61l0,0A24.36,24.36,0,0,0,10.69,32s0,.05,0,.06a24.13,24.13,0,0,0,7.19,3.64H18l0,0a16.71,16.71,0,0,0,1.48-2.39s0,0,0-.05a.08.08,0,0,0,0,0,.05.05,0,0,0,0,0,15.9,15.9,0,0,1-2.24-1.08.07.07,0,0,1,0,0,.06.06,0,0,1,0-.06l0,0,.45-.35a.05.05,0,0,1,0,0h.05a17,17,0,0,0,14.47,0h0l0,0,.44.35s0,0,0,0a.06.06,0,0,1,0,0s0,0,0,0l0,0a14.48,14.48,0,0,1-2.25,1.07l0,0,0,0v0a0,0,0,0,0,0,0,18.66,18.66,0,0,0,1.47,2.39l0,0H32a24,24,0,0,0,7.2-3.64l0,0a0,0,0,0,0,0,0A24.14,24.14,0,0,0,35,15.65s0,0,0,0ZM20.2,28.76a2.77,2.77,0,0,1-2.59-2.9A2.75,2.75,0,0,1,20.2,23a2.74,2.74,0,0,1,2.59,2.9A2.75,2.75,0,0,1,20.2,28.76Zm9.57,0a2.77,2.77,0,0,1-2.59-2.9A2.75,2.75,0,0,1,29.77,23a2.74,2.74,0,0,1,2.59,2.9A2.75,2.75,0,0,1,29.77,28.76Z" transform="translate(272.64 395.94)"/></svg>