<svg id="Layer_1" data-name="Layer 1" xmlns="http://www.w3.org/2000/svg" viewBox="0 0 309.66 432.71"><defs><style>.cls-1{fill:#153759;}.cls-2{fill:#506983;fill-rule:evenodd;}</style></defs><path class="cls-1" d="M-272.64-385.66l4.29-4.28-4.29-4.29.86-1.71,6,6-6,6Z" transform="translate(272.64 395.94)"/><path class="cls-2" d="M13,24.83A12.15,12.15,0,0,0,23,36.77V28.1H20V24.77h3V22.1a4.34,4.34,0,0,1,4.67-4.67,18.45,18.45,0,0,1,2.66.27v3.07H28.82c-1.47,0-1.8.73-1.8,1.66v2.34h3.2l-.53,3.33H27v8.67A12.08,12.08,0,1,0,13,24.83Z" transform="translate(272.64 395.94)"/></svg>