<svg id="Layer_1" data-name="Layer 1" xmlns="http://www.w3.org/2000/svg" viewBox="0 0 320.93 443.55"><defs><style>.cls-1{fill:#c4c4c4;}.cls-2{fill:#153759;}.cls-3{fill:none;}</style></defs><path class="cls-1" d="M-244.15-383.47l-12.92-11.89a2.17,2.17,0,0,0-1.55-.58,2.23,2.23,0,0,0-1.52.64L-272-383.41a2.09,2.09,0,0,0-.61,1.48v12.66a4,4,0,0,0,4,4h3.46a4,4,0,0,0,4-4v-3.81a3.13,3.13,0,0,1,3.12-3.13,3.13,3.13,0,0,1,3.13,3.13v3.81a4,4,0,0,0,4,4h3.46a4,4,0,0,0,4-4v-12.66A2.1,2.1,0,0,0-244.15-383.47Zm-14.42-10.39Zm13,22.86a3.64,3.64,0,0,1-3.64,3.65,3.64,3.64,0,0,1-3.65-3.65v-5.21a2.08,2.08,0,0,0-.61-1.47,2.08,2.08,0,0,0-1.47-.61h-6.25a2.08,2.08,0,0,0-1.47.61,2.08,2.08,0,0,0-.61,1.47V-371a3.65,3.65,0,0,1-3.65,3.65,3.64,3.64,0,0,1-3.64-3.65v-9.27a4,4,0,0,1,1.18-2.84l10.8-10.71h0l11.71,10.7a4,4,0,0,1,1.3,2.95Z" transform="translate(272.64 395.94)"/><path class="cls-2" d="M-272.64-385.66l4.29-4.28-4.29-4.29.86-1.71,6,6-6,6Z" transform="translate(272.64 395.94)"/><path class="cls-3" d="M23.79-1.39h0a24.5,24.5,0,0,1,24.5,24.5h0a24.5,24.5,0,0,1-24.5,24.5h0A24.5,24.5,0,0,1-.71,23.11h0A24.5,24.5,0,0,1,23.79-1.39Z" transform="translate(272.64 395.94)"/><path class="cls-1" d="M37.27,20,24.34,8.1a2.24,2.24,0,0,0-1.54-.58,2.18,2.18,0,0,0-1.52.65L9.39,20.06a2.08,2.08,0,0,0-.61,1.47V34.19a4,4,0,0,0,4,4h3.46a4,4,0,0,0,4-4V30.38a3.13,3.13,0,0,1,6.25,0v3.81a4,4,0,0,0,4,4h3.45a4,4,0,0,0,4-4V21.53A2.07,2.07,0,0,0,37.27,20ZM22.84,9.6Zm13,22.87a3.65,3.65,0,0,1-7.29,0V27.26A2.08,2.08,0,0,0,28,25.79a2,2,0,0,0-1.47-.61H20.24a2,2,0,0,0-1.48.61,2.08,2.08,0,0,0-.61,1.47v5.21a3.65,3.65,0,0,1-7.29,0V23.2a4,4,0,0,1,1.19-2.84L22.84,9.64h0l11.71,10.7a4,4,0,0,1,1.3,2.95Z" transform="translate(272.64 395.94)"/></svg>