<svg id="Layer_1" data-name="Layer 1" xmlns="http://www.w3.org/2000/svg" viewBox="0 0 312.24 434.87"><defs><style>.cls-1{fill:#153759;}.cls-2{fill:#fff;}.cls-3{fill:#19416a;}</style></defs><path class="cls-1" d="M-272.64-385.66l4.29-4.28-4.29-4.29.86-1.71,6,6-6,6Z" transform="translate(272.64 395.94)"/><circle class="cls-2" cx="296.43" cy="419.05" r="15.82"/><path class="cls-3" d="M30,17.38H17.57a.86.86,0,0,0-.63.26.88.88,0,0,0-.26.63V28.94a.85.85,0,0,0,.26.62.87.87,0,0,0,.63.27H30a.89.89,0,0,0,.63-.27.9.9,0,0,0,.26-.62V18.27a.92.92,0,0,0-.26-.63.88.88,0,0,0-.63-.26ZM17.57,28.94V18.27H30V28.94Z" transform="translate(272.64 395.94)"/><path class="cls-3" d="M19.75,21.83a1.3,1.3,0,0,0,.74-.23A1.31,1.31,0,0,0,21,21a1.35,1.35,0,0,0,.08-.77,1.31,1.31,0,0,0-.37-.68,1.34,1.34,0,0,0-.68-.37,1.35,1.35,0,0,0-1.37.57,1.39,1.39,0,0,0-.22.74,1.32,1.32,0,0,0,.39.94,1.34,1.34,0,0,0,.94.4Zm0-2a.72.72,0,0,1,.4.12.68.68,0,0,1,.26.32.64.64,0,0,1,0,.41.63.63,0,0,1-.19.36.76.76,0,0,1-.36.2.72.72,0,0,1-.41,0,.64.64,0,0,1-.32-.26.7.7,0,0,1,.58-1.1Z" transform="translate(272.64 395.94)"/><path class="cls-3" d="M25.91,22.43l-2.4,2.4-1.78-1.77a.43.43,0,0,0-.62,0l-2.69,2.72V27l3-3,1.46,1.44-1.67,1.67h1.22l3.76-3.76,2.91,2.9V25l-2.58-2.59a.46.46,0,0,0-.31-.13.46.46,0,0,0-.32.13Z" transform="translate(272.64 395.94)"/></svg>