<svg id="Layer_1" data-name="Layer 1" xmlns="http://www.w3.org/2000/svg" viewBox="0 0 20 20"><defs></defs><path class="cls-1" d="M23.1,19.77a3.34,3.34,0,1,0,3.34,3.34A3.34,3.34,0,0,0,23.1,19.77Zm10,3.34c0-1.38,0-2.75-.06-4.13a6,6,0,0,0-1.61-4.19,6,6,0,0,0-4.2-1.62c-1.38-.08-2.75-.06-4.12-.06s-2.75,0-4.13.06a6,6,0,0,0-4.2,1.62A6,6,0,0,0,13.17,19c-.08,1.38-.06,2.75-.06,4.13s0,2.75.06,4.12a6,6,0,0,0,1.61,4.2A6,6,0,0,0,19,33c1.38.08,2.75.07,4.13.07s2.74,0,4.12-.07a6,6,0,0,0,4.2-1.61A6,6,0,0,0,33,27.23C33.12,25.86,33.1,24.49,33.1,23.11Zm-10,5.13a5.13,5.13,0,1,1,5.13-5.13A5.12,5.12,0,0,1,23.1,28.24ZM28.44,19a1.2,1.2,0,1,1,1.2-1.19,1.2,1.2,0,0,1-.74,1.1A1.18,1.18,0,0,1,28.44,19Z" transform="translate(-13.11 -13.11)"/></svg>