<svg id="Layer_1" data-name="Layer 1" xmlns="http://www.w3.org/2000/svg" viewBox="0 0 133.88 133.88"><defs></defs><path class="cls-1" d="M267.51,155.12H152.73a9.61,9.61,0,0,0-9.54,9.65V279.35a9.61,9.61,0,0,0,9.54,9.65H267.51a9.63,9.63,0,0,0,9.57-9.65V164.77A9.63,9.63,0,0,0,267.51,155.12ZM183.66,269.87H163.81V206h19.88v63.89Zm-9.93-72.62a11.51,11.51,0,1,1,11.51-11.5,11.51,11.51,0,0,1-11.51,11.5ZM258,269.87H238.2V238.79c0-7.41-.15-16.94-10.31-16.94-10.34,0-11.93,8.07-11.93,16.41v31.61H196.12V206h19v8.73h.26c2.66-5,9.15-10.31,18.8-10.31,20.08,0,23.82,13.23,23.82,30.45v35Z" transform="translate(-143.19 -155.12)"/></svg>