<svg id="Layer_1" data-name="Layer 1" xmlns="http://www.w3.org/2000/svg" viewBox="0 0 320.93 443.55"><defs><style>.cls-1{fill:#c4c4c4;}.cls-2{fill:#153759;}.cls-3{fill:none;}.cls-4{fill:#19416a;}</style></defs><path class="cls-1" d="M-244.15-383.47l-12.92-11.89a2.17,2.17,0,0,0-1.55-.58,2.23,2.23,0,0,0-1.52.64L-272-383.41a2.09,2.09,0,0,0-.61,1.48v12.66a4,4,0,0,0,4,4h3.46a4,4,0,0,0,4-4v-3.81a3.13,3.13,0,0,1,3.12-3.13,3.13,3.13,0,0,1,3.13,3.13v3.81a4,4,0,0,0,4,4h3.46a4,4,0,0,0,4-4v-12.66A2.1,2.1,0,0,0-244.15-383.47Zm-14.42-10.39Zm13,22.86a3.64,3.64,0,0,1-3.64,3.65,3.64,3.64,0,0,1-3.65-3.65v-5.21a2.08,2.08,0,0,0-.61-1.47,2.08,2.08,0,0,0-1.47-.61h-6.25a2.08,2.08,0,0,0-1.47.61,2.08,2.08,0,0,0-.61,1.47V-371a3.65,3.65,0,0,1-3.65,3.65,3.64,3.64,0,0,1-3.64-3.65v-9.27a4,4,0,0,1,1.18-2.84l10.8-10.71h0l11.71,10.7a4,4,0,0,1,1.3,2.95Z" transform="translate(272.64 395.94)"/><path class="cls-2" d="M-272.64-385.66l4.29-4.28-4.29-4.29.86-1.71,6,6-6,6Z" transform="translate(272.64 395.94)"/><path class="cls-3" d="M23.79-1.39h0a24.5,24.5,0,0,1,24.5,24.5h0a24.5,24.5,0,0,1-24.5,24.5h0A24.5,24.5,0,0,1-.71,23.11h0A24.5,24.5,0,0,1,23.79-1.39Z" transform="translate(272.64 395.94)"/><path class="cls-4" d="M23.37,16.7a3.07,3.07,0,0,1,3.07,3.07v6.14A3.06,3.06,0,0,1,23.37,29h-4.6a3.06,3.06,0,0,1-3.07-3.06V19.77a3.07,3.07,0,0,1,3.07-3.07ZM28,24.62V21.06l2.66-2.52a1.14,1.14,0,0,1,1.25-.22,1.1,1.1,0,0,1,.51.42,1.19,1.19,0,0,1,.19.63V26.3a1.2,1.2,0,0,1-.19.64,1.23,1.23,0,0,1-.51.42,1.15,1.15,0,0,1-.66.08,1.23,1.23,0,0,1-.59-.3Zm10.74-1.78a15.34,15.34,0,1,0-29,7L8.11,35.75a1.79,1.79,0,0,0,0,1,1.86,1.86,0,0,0,.5.87,2,2,0,0,0,.87.5,2,2,0,0,0,1,0l5.87-1.64A15.33,15.33,0,0,0,38.71,22.84Zm-28.38,0A13,13,0,1,1,17,34.24L16.62,34l-6.12,1.7,1.71-6.11L12,29.18A13,13,0,0,1,10.33,22.84Z" transform="translate(272.64 395.94)"/></svg>