<svg id="Layer_1" data-name="Layer 1" xmlns="http://www.w3.org/2000/svg" viewBox="0 0 320.93 443.55"><defs><style>.cls-1{fill:#153759;}.cls-2,.cls-3{fill:none;}.cls-3{stroke:#c4c4c4;stroke-linecap:round;stroke-linejoin:round;stroke-width:2.08px;}.cls-4{fill:#c4c4c4;}</style></defs><path class="cls-1" d="M-272.64-385.66l4.29-4.28-4.29-4.29.86-1.71,6,6-6,6Z" transform="translate(272.64 395.94)"/><path class="cls-2" d="M23.79-1.39h0a24.5,24.5,0,0,1,24.5,24.5h0a24.5,24.5,0,0,1-24.5,24.5h0A24.5,24.5,0,0,1-.71,23.11h0A24.5,24.5,0,0,1,23.79-1.39Z" transform="translate(272.64 395.94)"/><path class="cls-3" d="M25,35.35a2.77,2.77,0,0,1-2.4,1.39,2.74,2.74,0,0,1-2.4-1.39M31.15,21.46c.8,7.47,4,9.73,4,9.73h-25s4.17-3,4.17-13.34a9.17,9.17,0,0,1,2.44-6.28A8,8,0,0,1,24,9.09Z" transform="translate(272.64 395.94)"/><path class="cls-4" d="M32.64,19a5,5,0,1,0-5-5A5,5,0,0,0,32.64,19Z" transform="translate(272.64 395.94)"/></svg>