<svg id="Layer_1" data-name="Layer 1" xmlns="http://www.w3.org/2000/svg" viewBox="0 0 320.93 443.55"><defs><style>.cls-1{fill:#c4c4c4;}.cls-2{fill:#153759;}.cls-3,.cls-4{fill:none;}.cls-4{stroke:#19416a;stroke-linecap:round;stroke-linejoin:round;stroke-width:2.08px;}.cls-5{fill:#19416a;}</style></defs><path class="cls-1" d="M-244.15-383.47l-12.92-11.89a2.17,2.17,0,0,0-1.55-.58,2.23,2.23,0,0,0-1.52.64L-272-383.41a2.09,2.09,0,0,0-.61,1.48v12.66a4,4,0,0,0,4,4h3.46a4,4,0,0,0,4-4v-3.81a3.13,3.13,0,0,1,3.12-3.13,3.13,3.13,0,0,1,3.13,3.13v3.81a4,4,0,0,0,4,4h3.46a4,4,0,0,0,4-4v-12.66A2.1,2.1,0,0,0-244.15-383.47Zm-14.42-10.39Zm13,22.86a3.64,3.64,0,0,1-3.64,3.65,3.64,3.64,0,0,1-3.65-3.65v-5.21a2.08,2.08,0,0,0-.61-1.47,2.08,2.08,0,0,0-1.47-.61h-6.25a2.08,2.08,0,0,0-1.47.61,2.08,2.08,0,0,0-.61,1.47V-371a3.65,3.65,0,0,1-3.65,3.65,3.64,3.64,0,0,1-3.64-3.65v-9.27a4,4,0,0,1,1.18-2.84l10.8-10.71h0l11.71,10.7a4,4,0,0,1,1.3,2.95Z" transform="translate(272.64 395.94)"/><path class="cls-2" d="M-272.64-385.66l4.29-4.28-4.29-4.29.86-1.71,6,6-6,6Z" transform="translate(272.64 395.94)"/><path class="cls-3" d="M23.79-1.39h0a24.5,24.5,0,0,1,24.5,24.5h0a24.5,24.5,0,0,1-24.5,24.5h0A24.5,24.5,0,0,1-.71,23.11h0A24.5,24.5,0,0,1,23.79-1.39Z" transform="translate(272.64 395.94)"/><path class="cls-4" d="M25,35.35a2.77,2.77,0,0,1-2.4,1.39,2.74,2.74,0,0,1-2.4-1.39M31.15,21.46c.8,7.47,4,9.73,4,9.73h-25s4.17-3,4.17-13.34a9.17,9.17,0,0,1,2.44-6.28A8,8,0,0,1,24,9.09Z" transform="translate(272.64 395.94)"/><path class="cls-5" d="M32.64,19a5,5,0,1,0-5-5A5,5,0,0,0,32.64,19Z" transform="translate(272.64 395.94)"/></svg>