<svg id="Layer_1" data-name="Layer 1" xmlns="http://www.w3.org/2000/svg" xmlns:xlink="http://www.w3.org/1999/xlink" viewBox="0 0 309.66 429.71"><defs><style>.cls-1{fill:none;}.cls-2{fill:#153759;}.cls-3{clip-path:url(#clip-path);}.cls-4{fill:#506983;}</style><clipPath id="clip-path" transform="translate(272.64 395.94)"><rect class="cls-1" x="13.02" y="12.77" width="24" height="24"/></clipPath></defs><path class="cls-2" d="M-272.64-385.66l4.29-4.28-4.29-4.29.86-1.71,6,6-6,6Z" transform="translate(272.64 395.94)"/><g class="cls-3"><path class="cls-4" d="M28,17.27a1.46,1.46,0,0,1,1.06.44,1.5,1.5,0,0,1,.44,1.06v12a1.52,1.52,0,0,1-.44,1.06,1.5,1.5,0,0,1-1.06.44H22A1.5,1.5,0,0,1,21,31.83a1.52,1.52,0,0,1-.44-1.06v-12A1.5,1.5,0,0,1,21,17.71,1.46,1.46,0,0,1,22,17.27Zm-6-1.5a3,3,0,0,0-2.12.87A3,3,0,0,0,19,18.77v12a3,3,0,0,0,3,3h6a3,3,0,0,0,3-3v-12a3,3,0,0,0-3-3Z" transform="translate(272.64 395.94)"/><path class="cls-4" d="M25,30.77a1.5,1.5,0,0,0,1.06-.44,1.52,1.52,0,0,0,.44-1.06,1.5,1.5,0,0,0-.44-1.06,1.5,1.5,0,0,0-2.12,0,1.5,1.5,0,0,0-.44,1.06A1.52,1.52,0,0,0,24,30.33,1.5,1.5,0,0,0,25,30.77Zm-9.6-11.92a.83.83,0,0,1,.23.19.72.72,0,0,1,.14.26,1.36,1.36,0,0,1,0,.29.76.76,0,0,1-.09.28,10.51,10.51,0,0,0,0,9.79.83.83,0,0,1,.06.58.73.73,0,0,1-.37.44.76.76,0,0,1-1-.31,12,12,0,0,1,0-11.21.63.63,0,0,1,.18-.22.82.82,0,0,1,.26-.14.7.7,0,0,1,.29,0A.9.9,0,0,1,15.42,18.85Zm19.2,0a1,1,0,0,1,.28-.08.7.7,0,0,1,.29,0,.72.72,0,0,1,.26.14.79.79,0,0,1,.19.22,12.07,12.07,0,0,1,0,11.21.81.81,0,0,1-.45.36.73.73,0,0,1-.93-.49.78.78,0,0,1,.05-.58,10.51,10.51,0,0,0,0-9.79.74.74,0,0,1-.08-.28.7.7,0,0,1,0-.29A.6.6,0,0,1,34.4,19,.79.79,0,0,1,34.62,18.85Zm-17,2.22a.75.75,0,0,1,.24.15.81.81,0,0,1,.17.24.72.72,0,0,1,.06.29A.58.58,0,0,1,18,22a7.54,7.54,0,0,0,0,5.45.82.82,0,0,1,.07.3.72.72,0,0,1-.06.29.73.73,0,0,1-.17.26.72.72,0,0,1-.25.16.75.75,0,0,1-.59,0,.69.69,0,0,1-.24-.18.68.68,0,0,1-.15-.26,9,9,0,0,1,0-6.55.75.75,0,0,1,.39-.41A.73.73,0,0,1,17.61,21.07Zm14.83,0a.56.56,0,0,1,.28-.05.72.72,0,0,1,.29.06.81.81,0,0,1,.24.17.78.78,0,0,1,.16.24,9.1,9.1,0,0,1,0,6.55.78.78,0,0,1-.4.38.73.73,0,0,1-.56,0,.76.76,0,0,1-.41-.38.77.77,0,0,1,0-.56A7.54,7.54,0,0,0,32,22a.75.75,0,0,1,0-.57A.72.72,0,0,1,32.44,21.07Z" transform="translate(272.64 395.94)"/></g></svg>