<svg id="Layer_1" data-name="Layer 1" xmlns="http://www.w3.org/2000/svg" viewBox="0 0 316.43 439.05"><defs><style>.cls-1{fill:#153759;}.cls-2{fill:#fff;}.cls-3{fill:#19416a;}</style></defs><path class="cls-1" d="M-272.64-385.66l4.29-4.28-4.29-4.29.86-1.71,6,6-6,6Z" transform="translate(272.64 395.94)"/><circle class="cls-2" cx="296.43" cy="419.05" r="20"/><path class="cls-3" d="M20.33,17.22a1,1,0,0,1,.53-.11,1,1,0,0,1,.51.18l7,5a1.19,1.19,0,0,1,.31.36,1,1,0,0,1,.11.46,1,1,0,0,1-.42.81l-7,5a1,1,0,0,1-.51.18,1,1,0,0,1-.53-.1,1.18,1.18,0,0,1-.4-.37,1.07,1.07,0,0,1-.14-.52v-10a1,1,0,0,1,.54-.89Z" transform="translate(272.64 395.94)"/></svg>