<svg id="Layer_1" data-name="Layer 1" xmlns="http://www.w3.org/2000/svg" viewBox="0 0 300.57 424.47"><defs><style>.cls-1{fill:#153759;}.cls-2{fill:#506983;}</style></defs><path class="cls-1" d="M-272.64-385.66l4.29-4.28-4.29-4.29.86-1.71,6,6-6,6Z" transform="translate(272.64 395.94)"/><path class="cls-2" d="M23.79,17.53a4,4,0,0,0-4.14,3.84,3.67,3.67,0,0,0,.75,2.2l2.88,4.63c.41.49.67.39,1,0l3.17-5a1.74,1.74,0,0,0,.16-.34,3.62,3.62,0,0,0,.31-1.44A4,4,0,0,0,23.79,17.53Zm0,1.8a2,2,0,1,1-2.2,2A2.11,2.11,0,0,1,23.79,19.33Z" transform="translate(272.64 395.94)"/></svg>