<svg id="Layer_1" data-name="Layer 1" xmlns="http://www.w3.org/2000/svg" viewBox="0 0 27.57 28"><defs></defs><path class="cls-1" d="M22.92,29.11a6,6,0,0,1-5.55-3.71,6,6,0,0,1,7.84-7.84,6.09,6.09,0,0,1,2.7,2.21,6,6,0,0,1,1,3.34,5.85,5.85,0,0,1-.44,2.3,5.95,5.95,0,0,1-5.56,3.7Zm0-10a3.74,3.74,0,0,0-1.55.28,3.92,3.92,0,0,0-1.31.86,3.82,3.82,0,0,0-.86,1.31,3.74,3.74,0,0,0-.28,1.55,3.72,3.72,0,0,0,.28,1.54A3.82,3.82,0,0,0,20.06,26a4,4,0,0,0,1.31.87,4.09,4.09,0,0,0,1.55.28,4,4,0,0,0,1.54-.28,4,4,0,0,0,2.18-2.18,4.4,4.4,0,0,0,0-3.09,3.92,3.92,0,0,0-2.18-2.17A3.69,3.69,0,0,0,22.92,19.11Z" transform="translate(-9.34 -9.11)"/><path class="cls-1" d="M36.22,18.15l-2.36-4.09a2,2,0,0,0-1-.87,2,2,0,0,0-1.34,0L29.05,14a12.09,12.09,0,0,0-1.31-.76l-.5-2.52a2,2,0,0,0-2-1.6H20.56a2,2,0,0,0-1.27.45,2,2,0,0,0-.7,1.15l-.5,2.52a10.35,10.35,0,0,0-1.33.76l-2.42-.82a2,2,0,0,0-2.37.89L9.61,18.15a2,2,0,0,0,.41,2.5L12,22.35c0,.25,0,.5,0,.76s0,.51,0,.76L10,25.56a2.07,2.07,0,0,0-.65,1.18,2,2,0,0,0,.24,1.32L12,32.15a2,2,0,0,0,2.38.9l2.43-.83a11.43,11.43,0,0,0,1.31.76l.5,2.52a2,2,0,0,0,.7,1.15,2,2,0,0,0,1.27.46h4.36v-2H20.56l-.71-3.55A9,9,0,0,1,17.15,30L13.7,31.15l-2.36-4.09,2.73-2.39a8.9,8.9,0,0,1,0-3.13l-2.72-2.39,2.36-4.09,3.43,1.16a9.21,9.21,0,0,1,2.72-1.56l.71-3.55h4.72L26,14.66a8.88,8.88,0,0,1,2.69,1.57l3.45-1.17,2.36,4.09-2.8,2.45L33,23.11l2.8-2.46a1.94,1.94,0,0,0,.65-1.17A2,2,0,0,0,36.22,18.15Z" transform="translate(-9.34 -9.11)"/><path class="cls-1" d="M29.92,33.29,27.33,30.7l-1.41,1.41,4,4,7-7L35.51,27.7Z" transform="translate(-9.34 -9.11)"/></svg>