<svg id="Layer_1" data-name="Layer 1" xmlns="http://www.w3.org/2000/svg" viewBox="0 0 307.26 430.31"><defs><style>.cls-1{fill:#153759;}.cls-2{fill:#506983;}</style></defs><path class="cls-1" d="M-272.64-385.66l4.29-4.28-4.29-4.29.86-1.71,6,6-6,6Z" transform="translate(272.64 395.94)"/><path class="cls-2" d="M25,16.37a8.4,8.4,0,0,0-8.4,8.4V26h1.8a.63.63,0,0,1,.43.17.61.61,0,0,1,.17.43v7.2a.59.59,0,0,1-.17.42.64.64,0,0,1-.43.18h-.6a2.41,2.41,0,0,1-2.4-2.4v-7.2a9.6,9.6,0,1,1,19.2,0V32a2.41,2.41,0,0,1-2.4,2.4h-.6a.6.6,0,0,1-.42-.18.56.56,0,0,1-.18-.42v-7.2a.58.58,0,0,1,.18-.43.59.59,0,0,1,.42-.17h1.8v-1.2a8.4,8.4,0,0,0-8.4-8.4Zm.6,9a.61.61,0,0,0-.17-.43.63.63,0,0,0-.43-.17.59.59,0,0,0-.42.17.58.58,0,0,0-.18.43v8.4a.56.56,0,0,0,.18.42.6.6,0,0,0,.42.18.64.64,0,0,0,.43-.18.59.59,0,0,0,.17-.42ZM22,27.17a.63.63,0,0,1,.43.17.61.61,0,0,1,.17.43v4.8a.59.59,0,0,1-.17.42.64.64,0,0,1-.43.18A.6.6,0,0,1,21.6,33a.56.56,0,0,1-.18-.42v-4.8a.58.58,0,0,1,.18-.43A.59.59,0,0,1,22,27.17Zm6.6.6a.61.61,0,0,0-.17-.43.63.63,0,0,0-.43-.17.59.59,0,0,0-.42.17.58.58,0,0,0-.18.43v4.8a.56.56,0,0,0,.18.42.6.6,0,0,0,.42.18.64.64,0,0,0,.43-.18.59.59,0,0,0,.17-.42Z" transform="translate(272.64 395.94)"/></svg>