<svg id="Layer_1" data-name="Layer 1" xmlns="http://www.w3.org/2000/svg" viewBox="0 0 321.04 420.94"><defs><style>.cls-1,.cls-2{fill:#153759;}.cls-2,.cls-3{fill-opacity:0.75;}.cls-3{fill:#fff;}</style></defs><path class="cls-1" d="M-272.64-385.66l4.29-4.28-4.29-4.29.86-1.71,6,6-6,6Z" transform="translate(272.64 395.94)"/><rect class="cls-2" x="274.16" y="414.71" width="46.89" height="6.23" rx="1.3"/><path class="cls-3" d="M21.66,22.68a.68.68,0,0,1-.29-.06.43.43,0,0,1-.2-.15.41.41,0,0,1-.08-.24h.38a.17.17,0,0,0,.05.12.2.2,0,0,0,.13,0,.21.21,0,0,0,.12,0,.14.14,0,0,0,.05-.11.09.09,0,0,0,0-.08.15.15,0,0,0-.09-.06.37.37,0,0,0-.15-.05L21.31,22a.37.37,0,0,1-.15-.13.4.4,0,0,1,.08-.54.61.61,0,0,1,.39-.12.56.56,0,0,1,.38.12.39.39,0,0,1,.16.32h-.38a.14.14,0,0,0-.05-.11.2.2,0,0,0-.13,0,.17.17,0,0,0-.1,0,.13.13,0,0,0,0,.21.77.77,0,0,0,.2.09l.23.09a.61.61,0,0,1,.16.12.38.38,0,0,1,.06.22.4.4,0,0,1-.06.22.45.45,0,0,1-.19.17A.61.61,0,0,1,21.66,22.68Zm1.89-1.18v1.16H23.2V22.5a.37.37,0,0,1-.15.13.45.45,0,0,1-.2,0,.47.47,0,0,1-.24-.05.38.38,0,0,1-.15-.18.53.53,0,0,1-.06-.26V21.5h.35v.63a.24.24,0,0,0,.06.18.21.21,0,0,0,.17.07.2.2,0,0,0,.16-.07.24.24,0,0,0,.06-.18V21.5Zm.62.17a.29.29,0,0,1,.14-.13.36.36,0,0,1,.21-.05.44.44,0,0,1,.26.07.55.55,0,0,1,.19.21.75.75,0,0,1,.06.31.83.83,0,0,1-.06.32.55.55,0,0,1-.19.21.53.53,0,0,1-.26.07.46.46,0,0,1-.21-.05.35.35,0,0,1-.14-.13v.16h-.36V21.12h.36Zm.5.41a.28.28,0,0,0-.07-.21.27.27,0,0,0-.36,0,.32.32,0,0,0,0,.42.24.24,0,0,0,.36,0A.28.28,0,0,0,24.67,22.08Zm2-.59a.44.44,0,0,1,.34.13.48.48,0,0,1,.13.36v.68h-.35V22a.24.24,0,0,0-.06-.17.21.21,0,0,0-.16-.06.21.21,0,0,0-.23.23v.63H26V22a.24.24,0,0,0-.06-.17.21.21,0,0,0-.16-.06.24.24,0,0,0-.17.06.29.29,0,0,0-.05.17v.63h-.36V21.5h.36v.15a.33.33,0,0,1,.14-.12.41.41,0,0,1,.19,0,.48.48,0,0,1,.24.06.35.35,0,0,1,.16.16.41.41,0,0,1,.16-.16A.46.46,0,0,1,26.7,21.49Zm.9-.11a.25.25,0,0,1-.15-.05.18.18,0,0,1-.06-.14.2.2,0,0,1,.06-.14.25.25,0,0,1,.3,0,.2.2,0,0,1,.06.14.18.18,0,0,1-.06.14A.25.25,0,0,1,27.6,21.38Zm.18.12v1.16h-.36V21.5Zm.9.86v.3H28.5a.45.45,0,0,1-.3-.09.42.42,0,0,1-.11-.31V21.8H28v-.3h.14v-.28h.35v.28h.24v.3h-.24v.46a.1.1,0,0,0,0,.08l.08,0Z" transform="translate(272.64 395.94)"/></svg>