<svg id="Layer_1" data-name="Layer 1" xmlns="http://www.w3.org/2000/svg" viewBox="0 0 320.93 443.55"><defs><style>.cls-1{fill:#153759;}.cls-2{fill:none;}.cls-3{fill:#f4f4f4;fill-opacity:0.1;}.cls-4{fill:#fff;}</style></defs><path class="cls-1" d="M-272.64-385.66l4.29-4.28-4.29-4.29.86-1.71,6,6-6,6Z" transform="translate(272.64 395.94)"/><path class="cls-2" d="M23.79-1.39h0a24.5,24.5,0,0,1,24.5,24.5h0a24.5,24.5,0,0,1-24.5,24.5h0A24.5,24.5,0,0,1-.71,23.11h0A24.5,24.5,0,0,1,23.79-1.39Z" transform="translate(272.64 395.94)"/><rect class="cls-3" x="282" y="403.8" width="26.64" height="26.64" rx="9.25"/><path class="cls-4" d="M28.86,21.43a.36.36,0,0,0,0-.52l-2.35-2.36a.37.37,0,1,0-.53.53l2.1,2.09L26,23.26a.37.37,0,0,0,.53.53Zm-12.1.11H28.6V20.8H16.76Z" transform="translate(272.64 395.94)"/></svg>