<svg id="Layer_1" data-name="Layer 1" xmlns="http://www.w3.org/2000/svg" viewBox="0 0 17 20"><defs><style>.cls-1{fill:#506983;}</style></defs><path class="cls-1" d="M25.52,34.77l-.25-3H25a8.47,8.47,0,0,1-8.5-8.5,8.45,8.45,0,0,1,8.5-8.5,8.29,8.29,0,0,1,3.31.66A8.51,8.51,0,0,1,31,17.25,8.6,8.6,0,0,1,32.86,20a8.34,8.34,0,0,1,.66,3.32,11.06,11.06,0,0,1-2.27,6.81A15.67,15.67,0,0,1,25.52,34.77Zm-.52-6a1,1,0,1,0-.73-.3A1,1,0,0,0,25,28.74Zm-.73-3.17h1.5a2.57,2.57,0,0,1,.15-1.05,6,6,0,0,1,.95-1.1,4.64,4.64,0,0,0,.75-1,2.21,2.21,0,0,0,.3-1.12,2.26,2.26,0,0,0-.86-1.92,3.39,3.39,0,0,0-2-.63,2.82,2.82,0,0,0-1.85.61,3.24,3.24,0,0,0-1.05,1.49l1.4.55a2.12,2.12,0,0,1,.48-.84,1.24,1.24,0,0,1,1-.41,1.28,1.28,0,0,1,1,.37,1.2,1.2,0,0,1,.34.83,1.24,1.24,0,0,1-.25.76,8.66,8.66,0,0,1-.6.69A4,4,0,0,0,24.46,24,4.36,4.36,0,0,0,24.27,25.57Zm3.25,4.2v1.35a12.4,12.4,0,0,0,2.89-3.52,8.81,8.81,0,0,0,1.11-4.33,6.44,6.44,0,0,0-6.5-6.5,6.44,6.44,0,0,0-6.5,6.5,6.45,6.45,0,0,0,6.5,6.5Z" transform="translate(-16.52 -14.77)"/></svg>