<svg id="Layer_1" data-name="Layer 1" xmlns="http://www.w3.org/2000/svg" viewBox="0 0 307.99 429.91"><defs><style>.cls-1{fill:#153759;}.cls-2{fill:#506983;}</style></defs><path class="cls-1" d="M-272.64-385.66l4.29-4.28-4.29-4.29.86-1.71,6,6-6,6Z" transform="translate(272.64 395.94)"/><path class="cls-2" d="M35.16,22.45h-6a.19.19,0,0,0-.18.19v1.13a.18.18,0,0,0,.18.18h6a.18.18,0,0,0,.19-.18V22.64A.19.19,0,0,0,35.16,22.45ZM32,25.64H29.16a.18.18,0,0,0-.18.19V27a.18.18,0,0,0,.18.19H32a.18.18,0,0,0,.19-.19V25.83A.18.18,0,0,0,32,25.64ZM24.2,20.35h-1a.27.27,0,0,0-.27.27v5.81a.26.26,0,0,0,.11.21l3.49,2.55a.27.27,0,0,0,.37-.06l.6-.82h0a.26.26,0,0,0-.06-.36l-3-2.15V20.62A.27.27,0,0,0,24.2,20.35Z" transform="translate(272.64 395.94)"/><path class="cls-2" d="M31.88,28.59H30.52a.38.38,0,0,0-.32.18,7.74,7.74,0,0,1-1.05,1.31,7.51,7.51,0,0,1-2.37,1.6,7.57,7.57,0,0,1-5.81,0,7.46,7.46,0,0,1-4-4,7.57,7.57,0,0,1,0-5.81,7.51,7.51,0,0,1,1.6-2.37,7.5,7.5,0,0,1,5.28-2.19,7.42,7.42,0,0,1,2.91.59,7.19,7.19,0,0,1,2.37,1.6,7.29,7.29,0,0,1,1.05,1.3.38.38,0,0,0,.32.18h1.36a.21.21,0,0,0,.19-.31,9.17,9.17,0,1,0,0,8.21A.21.21,0,0,0,31.88,28.59Z" transform="translate(272.64 395.94)"/></svg>