<svg id="Layer_1" data-name="Layer 1"  xmlns="http://www.w3.org/2000/svg" viewBox="0 0 24.6 20"><defs></defs><path class="cls-1" d="M35.41,15.53a10.14,10.14,0,0,1-2.9.8,5.11,5.11,0,0,0,2.22-2.8,10,10,0,0,1-3.21,1.23,5,5,0,0,0-8.6,4.6,14.31,14.31,0,0,1-5.76-1.53,14.38,14.38,0,0,1-4.64-3.74,5,5,0,0,0-.68,2.54,5,5,0,0,0,2.24,4.2,5.14,5.14,0,0,1-2.29-.63v.06a5.07,5.07,0,0,0,4.05,4.95,5.16,5.16,0,0,1-2.28.09,5,5,0,0,0,4.72,3.5A10.06,10.06,0,0,1,12,31a9.66,9.66,0,0,1-1.2-.07A14.35,14.35,0,0,0,32.9,18.8c0-.22,0-.43,0-.65a10.42,10.42,0,0,0,2.52-2.61Z" transform="translate(-10.81 -13.16)"/></svg>